<svg width="267" height="59" viewBox="0 0 267 59" fill="none" xmlns="http://www.w3.org/2000/svg">
<path d="M70.9062 0.878906C71.1797 1.34766 71.3164 1.79687 71.3164 2.22656C70.418 2.46094 69.6172 2.73437 68.9141 3.04688C68.25 3.32031 67.6445 3.65234 67.0977 4.04297C66.5508 4.39453 66.043 4.84375 65.5742 5.39062C65.1445 5.89844 64.7148 6.50391 64.2852 7.20703C64.0508 7.55859 63.7773 7.83203 63.4648 8.02734C63.1914 8.22266 62.957 8.51563 62.7617 8.90625C62.4883 9.41406 62.2734 9.98047 62.1172 10.6055C61.9609 11.1914 61.8047 11.7969 61.6484 12.4219C61.5703 12.6172 61.4922 12.832 61.4141 13.0664C61.3359 13.2617 61.2578 13.457 61.1797 13.6523C61.1016 14.082 61.082 14.4922 61.1211 14.8828C61.1602 15.2734 61.1016 15.6641 60.9453 16.0547C60.8281 16.3672 60.6719 16.6211 60.4766 16.8164C60.2812 17.0117 60.125 17.2266 60.0078 17.4609C59.6953 18.0078 59.4805 18.6133 59.3633 19.2773C59.2852 19.9414 59.207 20.6445 59.1289 21.3867C59.0898 21.6211 59.0117 21.8359 58.8945 22.0312C58.8164 22.2266 58.7383 22.4414 58.6602 22.6758C58.582 22.9883 58.5234 23.3008 58.4844 23.6133C58.4453 23.8867 58.3867 24.1797 58.3086 24.4922C58.0352 25.2734 57.7422 26.0742 57.4297 26.8945C57.1562 27.6758 56.9609 28.457 56.8438 29.2383C56.7656 29.668 56.7266 30.0977 56.7266 30.5273C56.7656 30.918 56.7461 31.3281 56.668 31.7578C56.4727 32.8906 56.1992 33.9844 55.8477 35.0391C55.4961 36.0547 55.1641 37.0508 54.8516 38.0273C54.6562 38.7305 54.5 39.3945 54.3828 40.0195C54.3047 40.6055 54.1484 41.2305 53.9141 41.8945C53.7578 42.2461 53.6406 42.5781 53.5625 42.8906C53.4844 43.1641 53.3281 43.4375 53.0938 43.7109C52.8594 43.9844 52.5273 44.1992 52.0977 44.3555C51.668 44.5117 51.2188 44.6484 50.75 44.7656C50.2812 44.8828 49.8125 44.9805 49.3438 45.0586C48.9141 45.1758 48.5234 45.293 48.1719 45.4102C47.8203 45.5664 47.5273 45.7812 47.293 46.0547C47.0586 46.3672 46.8047 46.6406 46.5312 46.875C46.2578 47.1484 45.9453 47.3242 45.5938 47.4023C45.2812 47.5195 44.8516 47.4609 44.3047 47.2266C44.2656 46.7578 44.2461 46.2305 44.2461 45.6445C44.2852 45.0586 44.3438 44.5312 44.4219 44.0625C44.5391 43.3984 44.7344 42.8125 45.0078 42.3047C45.3203 41.7969 45.6133 41.25 45.8867 40.6641C46.3164 39.6484 46.5898 38.6719 46.707 37.7344C46.8242 36.7969 47.0781 35.8203 47.4688 34.8047C47.8203 34.5703 48.0547 34.3164 48.1719 34.043C48.2891 33.7695 48.3477 33.4766 48.3477 33.1641C48.3867 32.8125 48.3867 32.4414 48.3477 32.0508C48.3086 31.6602 48.3281 31.2305 48.4062 30.7617C48.4453 30.293 48.5625 29.8242 48.7578 29.3555C48.9531 28.8867 49.0898 28.3984 49.168 27.8906C49.2461 27.4609 49.2852 27.1289 49.2852 26.8945C49.3242 26.6211 49.3438 26.3867 49.3438 26.1914C49.3828 25.9961 49.4219 25.8008 49.4609 25.6055C49.5391 25.3711 49.6367 25.0781 49.7539 24.7266C49.9102 24.375 50.0859 24.0234 50.2812 23.6719C50.4766 23.3203 50.6523 22.9492 50.8086 22.5586C51.1211 21.543 51.3555 20.4688 51.5117 19.3359C51.668 18.2031 51.8242 17.0898 51.9805 15.9961C52.0586 15.332 52.1758 14.5898 52.332 13.7695C52.5273 12.9492 52.5859 12.207 52.5078 11.543C52.3516 11.543 52.0586 11.7773 51.6289 12.2461C51.2383 12.7148 50.75 13.3398 50.1641 14.1211C49.6172 14.8633 48.9922 15.7227 48.2891 16.6992C47.625 17.6367 46.9609 18.6133 46.2969 19.6289C45.6719 20.6055 45.0664 21.543 44.4805 22.4414C43.9336 23.3008 43.4844 24.043 43.1328 24.668C42.5469 25.0195 42.0977 25.4297 41.7852 25.8984C41.5117 26.3281 41.2773 26.7969 41.082 27.3047C40.8867 27.8125 40.6914 28.3594 40.4961 28.9453C40.3008 29.4922 40.0078 30.0586 39.6172 30.6445C39.3047 31.8555 38.7773 33.0469 38.0352 34.2188C37.293 35.3906 36.6875 36.543 36.2188 37.6758C36.1016 37.9883 35.9844 38.2812 35.8672 38.5547C35.7891 38.7891 35.6523 39.0625 35.457 39.375C35.1445 40.1562 34.7734 40.918 34.3438 41.6602C33.9531 42.3633 33.543 43.1055 33.1133 43.8867C32.6445 44.668 32.1172 45.3906 31.5312 46.0547C31.2969 46.3672 31.1016 46.7773 30.9453 47.2852C30.8281 47.793 30.6328 48.0859 30.3594 48.1641C30.0078 48.2422 29.6367 48.1836 29.2461 47.9883C28.8555 47.832 28.4844 47.7148 28.1328 47.6367C27.4297 46.6211 27.0195 45.6055 26.9023 44.5898C26.9023 44.3164 26.9414 44.0625 27.0195 43.8281C27.0977 43.5547 27.1172 43.3008 27.0781 43.0664C27.0391 42.6367 26.8633 42.168 26.5508 41.6602C26.2383 41.1133 26.043 40.5664 25.9648 40.0195C25.8086 39.3555 25.8086 38.7305 25.9648 38.1445C26.1211 37.5195 26.1211 36.9531 25.9648 36.4453C25.8867 36.2109 25.7305 36.0156 25.4961 35.8594C25.3008 35.6641 25.1641 35.4688 25.0859 35.2734C25.0078 35 24.9688 34.6875 24.9688 34.3359C25.0078 33.9844 25.0078 33.6328 24.9688 33.2812C24.8516 32.6172 24.6562 31.875 24.3828 31.0547C24.1484 30.2344 23.9336 29.4141 23.7383 28.5938C23.543 28.0078 23.2695 27.3242 22.918 26.543C22.6055 25.7617 22.4102 25.0195 22.332 24.3164C22.293 23.9258 22.2539 23.5742 22.2148 23.2617C22.2148 22.9102 22.1953 22.5781 22.1562 22.2656C22.0781 21.5625 21.9023 20.8008 21.6289 19.9805C21.3555 19.1602 21.0625 18.3398 20.75 17.5195C20.4766 16.6992 20.2227 15.8789 19.9883 15.0586C19.793 14.2383 19.6953 13.4375 19.6953 12.6562C19.5 12.7344 19.3242 12.9102 19.168 13.1836C19.0117 13.457 18.8555 13.7891 18.6992 14.1797C18.543 14.5703 18.4062 14.9609 18.2891 15.3516C18.1719 15.7422 18.0742 16.0547 17.9961 16.2891C17.8789 16.4844 17.7227 16.6992 17.5273 16.9336C17.332 17.168 17.2148 17.4414 17.1758 17.7539C17.1367 17.9102 17.1562 18.0859 17.2344 18.2812C17.3516 18.4766 17.4102 18.6914 17.4102 18.9258C17.4492 19.5508 17.332 20.2148 17.0586 20.918C16.7852 21.582 16.5508 22.2461 16.3555 22.9102C16.1602 23.6914 16.0039 24.5117 15.8867 25.3711C15.7695 26.1914 15.5352 27.0508 15.1836 27.9492C14.8711 28.8086 14.6172 29.6875 14.4219 30.5859C14.2656 31.4453 14.0898 32.2266 13.8945 32.9297C13.8164 33.4375 13.7773 33.9453 13.7773 34.4531C13.7773 34.9609 13.6992 35.3711 13.543 35.6836C13.3477 36.0742 13.0156 36.3867 12.5469 36.6211C12.1172 36.8555 11.8438 37.1875 11.7266 37.6172C11.6875 38.4375 11.5117 39.375 11.1992 40.4297C10.8867 41.4844 10.6133 42.4609 10.3789 43.3594C10.3008 43.7109 10.2422 44.082 10.2031 44.4727C10.1641 44.8242 10.0859 45.1367 9.96875 45.4102C9.89062 45.7227 9.73438 45.9766 9.5 46.1719C9.30469 46.4062 8.99219 46.543 8.5625 46.582C7.82031 46.6602 7.07812 46.4844 6.33594 46.0547C5.63281 45.625 5.20312 45.1758 5.04688 44.707C4.96875 44.3945 4.96875 44.082 5.04688 43.7695C5.125 43.418 5.16406 43.0859 5.16406 42.7734C4.65625 43.0859 4.26562 43.2422 3.99219 43.2422C3.75781 43.2422 3.54297 43.1641 3.34766 43.0078C3.15234 42.8125 2.9375 42.5781 2.70312 42.3047C2.46875 41.9922 2.15625 41.6992 1.76562 41.4258C1.375 41.1133 1.08203 40.9375 0.886719 40.8984C0.691406 40.8203 0.554688 40.5078 0.476562 39.9609C0.398438 39.375 0.4375 38.8086 0.59375 38.2617C0.75 37.7148 0.945312 37.2656 1.17969 36.9141C1.29688 36.6797 1.45312 36.4844 1.64844 36.3281C1.84375 36.1328 2 35.9375 2.11719 35.7422C2.27344 35.4297 2.27344 35 2.11719 34.4531C2 33.8672 2.03906 33.3594 2.23438 32.9297C2.50781 32.3438 2.80078 31.7969 3.11328 31.2891C3.42578 30.7422 3.60156 30.0781 3.64062 29.2969C3.67969 28.9844 3.66016 28.6523 3.58203 28.3008C3.50391 27.9492 3.50391 27.6172 3.58203 27.3047C3.62109 26.9922 3.67969 26.6797 3.75781 26.3672C3.875 26.0156 3.99219 25.625 4.10938 25.1953C4.22656 24.6094 4.44141 23.9844 4.75391 23.3203C5.06641 22.6562 5.32031 21.9336 5.51562 21.1523C5.67188 20.8398 5.80859 20.5273 5.92578 20.2148C6.04297 19.8633 6.16016 19.5312 6.27734 19.2188C6.51172 18.5547 6.66797 17.9102 6.74609 17.2852C6.86328 16.6211 7.01953 15.9766 7.21484 15.3516C7.29297 15.1172 7.41016 14.9219 7.56641 14.7656C7.76172 14.5703 7.89844 14.375 7.97656 14.1797C8.28906 13.5156 8.44531 12.832 8.44531 12.1289C8.44531 11.3867 8.52344 10.625 8.67969 9.84375C8.79688 9.10156 8.93359 8.4375 9.08984 7.85156C9.28516 7.22656 9.44141 6.66016 9.55859 6.15234C9.67578 5.60547 9.69531 5.09766 9.61719 4.62891C9.57812 4.16016 9.38281 3.67187 9.03125 3.16406C8.83594 2.89063 8.62109 2.69531 8.38672 2.57812C8.19141 2.46094 8.07422 2.30469 8.03516 2.10938C8.03516 1.64062 8.21094 1.38672 8.5625 1.34766C8.95312 1.26953 9.38281 1.28906 9.85156 1.40625C10.3203 1.52344 10.7695 1.67969 11.1992 1.875C11.668 2.03125 11.9609 2.12891 12.0781 2.16797C12.2734 2.20703 12.5078 2.20703 12.7812 2.16797C13.0547 2.12891 13.3477 2.14844 13.6602 2.22656C14.0117 2.26562 14.3633 2.32422 14.7148 2.40234C15.0664 2.48047 15.3789 2.53906 15.6523 2.57812C16.2773 2.57812 16.7266 2.57812 17 2.57812C17.2734 2.53906 17.7031 2.5 18.2891 2.46094C18.8359 2.42188 19.5 2.42188 20.2812 2.46094C21.1016 2.5 21.8047 2.48047 22.3906 2.40234C22.8984 2.36328 23.5234 2.28516 24.2656 2.16797C25.0469 2.05078 25.7891 1.95313 26.4922 1.875C27.2344 1.79687 27.8789 1.79687 28.4258 1.875C29.0117 1.91406 29.3438 2.10938 29.4219 2.46094C29.5391 2.89063 29.4219 3.28125 29.0703 3.63281C28.7578 3.94531 28.5625 4.27734 28.4844 4.62891C28.4062 5.56641 28.3086 6.62109 28.1914 7.79297C28.0742 8.92578 28.0742 9.88281 28.1914 10.6641C28.2695 11.0938 28.2891 11.5234 28.25 11.9531C28.2109 12.3437 28.25 12.6953 28.3672 13.0078C28.6016 13.8672 28.7773 14.6875 28.8945 15.4688C28.9336 15.9375 29.1094 16.3867 29.4219 16.8164C29.7734 17.207 29.9297 17.6172 29.8906 18.0469C29.8516 18.5938 29.9492 19.1602 30.1836 19.7461C30.457 20.293 30.6133 20.8789 30.6523 21.5039C30.7305 22.1289 30.7695 22.7734 30.7695 23.4375C30.8086 24.1016 31.0234 24.707 31.4141 25.2539C31.8047 24.9414 32.0391 24.5508 32.1172 24.082C32.2344 23.6133 32.3906 23.1641 32.5859 22.7344C32.6641 22.5391 32.7812 22.3633 32.9375 22.207C33.1328 22.0117 33.3086 21.8164 33.4648 21.6211C33.8945 20.7227 34.4219 19.7852 35.0469 18.8086C35.7109 17.793 36.2773 16.7773 36.7461 15.7617C37.2539 14.7852 37.7422 13.8086 38.2109 12.832C38.6797 11.8164 39.1289 10.8008 39.5586 9.78516C39.6367 9.62891 39.7734 9.45313 39.9688 9.25781C40.2031 9.0625 40.4375 8.86719 40.6719 8.67188C40.9062 8.47656 41.1211 8.30078 41.3164 8.14453C41.5508 7.94922 41.7266 7.75391 41.8438 7.55859C42.4297 6.46484 42.918 5.52734 43.3086 4.74609C43.7383 3.92578 44.0508 2.91016 44.2461 1.69922C44.9492 1.66016 45.6133 1.67969 46.2383 1.75781C46.9023 1.83594 47.625 1.93359 48.4062 2.05078C48.7188 2.12891 48.9922 2.22656 49.2266 2.34375C49.5 2.46094 49.7734 2.53906 50.0469 2.57812C50.5938 2.65625 51.0234 2.67578 51.3359 2.63672C51.6875 2.59766 51.9805 2.55859 52.2148 2.51953C52.4883 2.44141 52.7422 2.40234 52.9766 2.40234C53.25 2.36328 53.6211 2.42188 54.0898 2.57812C55.418 2.57812 56.7852 2.48047 58.1914 2.28516C59.5977 2.08984 61.0039 1.89453 62.4102 1.69922C63.8555 1.46484 65.2812 1.26953 66.6875 1.11328C68.1328 0.957031 69.5391 0.878906 70.9062 0.878906ZM64.1094 42.0117C64.1875 41.1133 64.4805 40.3125 64.9883 39.6094C65.5352 38.8672 65.9453 38.1055 66.2188 37.3242C66.375 36.8164 66.4727 36.2891 66.5117 35.7422C66.5898 35.1562 66.6289 34.5898 66.6289 34.043C66.668 33.457 66.7266 32.8906 66.8047 32.3438C66.8828 31.7578 67.0195 31.1914 67.2148 30.6445C67.0195 30.293 66.9414 29.9023 66.9805 29.4727C67.0195 29.043 67.0391 28.5938 67.0391 28.125C67.2344 27.8516 67.3906 27.5391 67.5078 27.1875C67.625 26.8359 67.8984 26.6016 68.3281 26.4844C68.7188 25.625 68.9141 24.7461 68.9141 23.8477C68.9141 22.9102 69.0117 21.9531 69.207 20.9766C69.2461 20.7812 69.3242 20.6055 69.4414 20.4492C69.5586 20.293 69.6562 20.1172 69.7344 19.9219C70.0078 19.1016 70.1445 18.2422 70.1445 17.3438C70.1445 16.4062 70.3008 15.5273 70.6133 14.707C70.8477 14.6289 71.1406 14.5117 71.4922 14.3555C71.8438 14.1602 72.1953 13.9844 72.5469 13.8281C72.9375 13.6328 73.3086 13.4766 73.6602 13.3594C74.0117 13.2422 74.3242 13.2031 74.5977 13.2422C74.793 13.3203 74.9883 13.4375 75.1836 13.5938C75.3789 13.7109 75.6133 13.8672 75.8867 14.0625C76.082 14.1797 76.2578 14.3164 76.4141 14.4727C76.6094 14.6289 76.8047 14.7656 77 14.8828C77.1562 14.9609 77.3516 15.0391 77.5859 15.1172C77.8594 15.1562 78.0352 15.2148 78.1133 15.293C78.1523 15.332 78.2695 15.4688 78.4648 15.7031C78.6992 15.9375 78.9141 16.1914 79.1094 16.4648C79.3438 16.7383 79.5586 17.0117 79.7539 17.2852C79.9492 17.5195 80.0664 17.6758 80.1055 17.7539C80.1445 17.9883 80.125 18.2617 80.0469 18.5742C79.9688 18.8477 79.8516 19.1406 79.6953 19.4531C79.5781 19.7266 79.4414 20.0195 79.2852 20.332C79.168 20.6055 79.0703 20.8594 78.9922 21.0938C78.875 21.5234 78.7578 21.9531 78.6406 22.3828C78.5234 22.7734 78.3672 23.1836 78.1719 23.6133C77.9766 24.1211 77.7617 24.707 77.5273 25.3711C77.293 26.0352 77.1367 26.7383 77.0586 27.4805C76.9805 28.0273 76.7656 28.4375 76.4141 28.7109C76.1016 28.9844 75.8867 29.375 75.7695 29.8828C75.6914 30.2344 75.6523 30.6055 75.6523 30.9961C75.6523 31.3867 75.6523 31.7773 75.6523 32.168C75.6914 32.5195 75.6914 32.8711 75.6523 33.2227C75.6523 33.5742 75.5742 33.9062 75.418 34.2188C75.3008 34.4141 75.125 34.5703 74.8906 34.6875C74.6562 34.7656 74.4609 34.9023 74.3047 35.0977C74.0703 35.4883 73.8555 35.9766 73.6602 36.5625C73.5039 37.1484 73.3672 37.7734 73.25 38.4375C73.1328 39.0625 73.0742 39.707 73.0742 40.3711C73.1133 40.9961 73.2305 41.5625 73.4258 42.0703C73.2305 42.6953 72.8789 43.2422 72.3711 43.7109C71.9023 44.1797 71.3359 44.5508 70.6719 44.8242C70.0078 45.0586 69.2852 45.1758 68.5039 45.1758C67.7617 45.2148 67 45.0977 66.2188 44.8242C65.9062 44.3555 65.5352 43.9258 65.1055 43.5352C64.6758 43.1055 64.3438 42.5977 64.1094 42.0117ZM118.309 12.3633C118.504 13.2617 118.602 14.0625 118.602 14.7656C118.602 15.4688 118.328 16.0547 117.781 16.5234C117.625 16.6797 117.449 16.7969 117.254 16.875C117.059 16.9141 116.883 17.0117 116.727 17.168C116.453 17.4414 116.238 17.7539 116.082 18.1055C115.965 18.457 115.809 18.7891 115.613 19.1016C114.48 19.6484 113.426 20.3125 112.449 21.0938C111.473 21.8359 110.438 22.5195 109.344 23.1445C108.836 23.418 108.328 23.75 107.82 24.1406C107.352 24.5312 106.883 24.8828 106.414 25.1953C106.219 25.3906 106.023 25.5859 105.828 25.7812C105.672 25.9766 105.477 26.1523 105.242 26.3086C104.969 26.5039 104.676 26.6406 104.363 26.7188C104.051 26.7578 103.758 26.8359 103.484 26.9531C103.055 27.2266 102.703 27.5391 102.43 27.8906C102.156 28.2422 101.824 28.6328 101.434 29.0625C101.434 30.0781 101.551 30.957 101.785 31.6992C102.059 32.4023 102.371 33.0859 102.723 33.75C103.074 34.375 103.406 35.0195 103.719 35.6836C104.07 36.3477 104.344 37.0898 104.539 37.9102C105.125 38.1836 105.516 38.6133 105.711 39.1992C105.945 39.7852 106.277 40.293 106.707 40.7227C106.824 40.8789 106.98 40.9961 107.176 41.0742C107.371 41.1133 107.547 41.2109 107.703 41.3672C107.898 41.5234 108.055 41.7188 108.172 41.9531C108.289 42.1875 108.445 42.4023 108.641 42.5977C108.992 42.9102 109.344 43.1836 109.695 43.418C110.086 43.6133 110.438 43.8672 110.75 44.1797C111.062 44.4922 111.375 44.8242 111.688 45.1758C112 45.5273 112.43 45.7812 112.977 45.9375C113.328 46.6016 113.719 47.207 114.148 47.7539C114.578 48.3008 115.184 48.6914 115.965 48.9258C116.043 49.2383 116.219 49.4922 116.492 49.6875C116.766 49.9219 116.883 50.1562 116.844 50.3906C116.727 50.8203 116.375 51.0547 115.789 51.0938C115.203 51.1719 114.52 51.1719 113.738 51.0938C112.996 51.0156 112.254 50.8984 111.512 50.7422C110.809 50.5859 110.281 50.4883 109.93 50.4492C109.852 50.3711 109.754 50.293 109.637 50.2148C109.559 50.1758 109.48 50.1172 109.402 50.0391C108.504 49.9609 107.742 49.7656 107.117 49.4531C106.492 49.1406 105.887 48.8086 105.301 48.457C105.027 47.9492 104.734 47.4609 104.422 46.9922C104.109 46.5234 103.738 46.0938 103.309 45.7031C103.309 45.3906 103.25 45.1172 103.133 44.8828C103.055 44.6484 103.016 44.3359 103.016 43.9453C102.703 43.7109 102.391 43.4961 102.078 43.3008C101.766 43.0664 101.355 42.9102 100.848 42.832C100.496 42.2852 100.223 41.6992 100.027 41.0742C99.832 40.4102 99.5195 39.8047 99.0898 39.2578C99.0117 39.1016 98.8945 38.9844 98.7383 38.9062C98.6211 38.8281 98.5234 38.6914 98.4453 38.4961C98.3672 38.2617 98.3281 38.0273 98.3281 37.793C98.3672 37.5195 98.3477 37.2852 98.2695 37.0898C98.1523 36.5039 97.9375 36.0156 97.625 35.625C97.3516 35.1953 97.0977 34.7461 96.8633 34.2773C96.7852 33.3789 96.5312 32.8906 96.1016 32.8125C95.6719 32.7344 95.1836 32.8516 94.6367 33.1641C94.1289 33.4375 93.6211 33.7891 93.1133 34.2188C92.6055 34.6484 92.2148 34.9414 91.9414 35.0977C91.668 35.5273 91.4727 36.0938 91.3555 36.7969C91.2383 37.5 91.0625 38.1641 90.8281 38.7891C90.75 38.9453 90.6328 39.082 90.4766 39.1992C90.3594 39.3164 90.2227 39.5312 90.0664 39.8438C89.7539 40.4688 89.5195 41.2695 89.3633 42.2461C89.2461 43.2227 89.0312 44.1016 88.7188 44.8828C88.4844 45.625 87.9375 46.0547 87.0781 46.1719C86.2188 46.2891 85.4375 46.1133 84.7344 45.6445C84.4219 45.8398 84.1289 46.0352 83.8555 46.2305C83.6211 46.4258 83.3477 46.5234 83.0352 46.5234C82.6055 46.4844 82.1953 46.2891 81.8047 45.9375C81.4141 45.625 81.043 45.4102 80.6914 45.293C80.6523 44.707 80.6914 44.1211 80.8086 43.5352C80.9258 42.9102 81.0625 42.3242 81.2188 41.7773C81.3359 41.1914 81.4531 40.625 81.5703 40.0781C81.7266 39.5312 81.8633 38.9648 81.9805 38.3789C82.0586 38.1055 82.1172 37.832 82.1562 37.5586C82.2344 37.2852 82.3125 37.0312 82.3906 36.7969C82.4688 36.5625 82.5859 36.3477 82.7422 36.1523C82.8984 35.957 83.0156 35.7422 83.0938 35.5078C83.1719 35.2734 83.1914 35.0391 83.1523 34.8047C83.1133 34.5703 83.0938 34.3359 83.0938 34.1016C83.1719 33.6328 83.3086 33.1836 83.5039 32.7539C83.6992 32.3242 83.9336 31.9531 84.207 31.6406C84.2461 30.7422 84.3438 29.9219 84.5 29.1797C84.6953 28.3984 84.8906 27.6562 85.0859 26.9531C85.3203 26.25 85.5352 25.5469 85.7305 24.8438C85.9648 24.1016 86.1406 23.3398 86.2578 22.5586C86.7266 21.7383 87.1758 20.7422 87.6055 19.5703C87.8008 19.0625 87.957 18.5156 88.0742 17.9297C88.2305 17.3438 88.3867 16.7969 88.543 16.2891C88.6992 15.7812 88.8945 15.332 89.1289 14.9414C89.4023 14.5508 89.7734 14.2578 90.2422 14.0625C90.4375 13.3984 90.8086 12.8125 91.3555 12.3047C91.9414 11.7969 92.625 11.7383 93.4062 12.1289C93.5625 12.2852 93.6797 12.5 93.7578 12.7734C93.875 13.0078 93.9727 13.2617 94.0508 13.5352C94.1289 13.7695 94.207 14.0039 94.2852 14.2383C94.4023 14.4727 94.5586 14.668 94.7539 14.8242C95.0664 15.0977 95.418 15.2344 95.8086 15.2344C96.1992 15.2344 96.5703 15.3516 96.9219 15.5859C97.1172 16.0938 97.1953 16.5625 97.1562 16.9922C97.1562 17.4219 97.0781 17.8516 96.9219 18.2812C96.7656 18.6719 96.5898 19.0625 96.3945 19.4531C96.1992 19.8438 96.043 20.2344 95.9258 20.625C95.8477 20.8203 95.8086 21.0547 95.8086 21.3281C95.8086 21.5625 95.7695 21.7773 95.6914 21.9727C95.6133 22.168 95.5352 22.3633 95.457 22.5586C95.418 22.7539 95.3594 22.9492 95.2812 23.1445C95.1641 23.8086 95.0469 24.3945 94.9297 24.9023C94.8516 25.3711 94.5781 25.7812 94.1094 26.1328C94.3047 26.6406 94.3047 27.0312 94.1094 27.3047C93.9141 27.5781 93.7969 27.9492 93.7578 28.418C94.3438 28.1836 94.8711 27.8711 95.3398 27.4805C95.8086 27.0898 96.2578 26.6992 96.6875 26.3086C97.1562 25.8789 97.625 25.4688 98.0938 25.0781C98.6016 24.6875 99.168 24.3555 99.793 24.082C99.9883 24.082 100.184 24.082 100.379 24.082C100.613 24.043 100.828 24.0625 101.023 24.1406C101.336 23.9453 101.609 23.7109 101.844 23.4375C102.078 23.1641 102.293 22.8906 102.488 22.6172C102.723 22.3828 102.918 22.1289 103.074 21.8555C103.27 21.543 103.484 21.25 103.719 20.9766C104.109 20.625 104.52 20.332 104.949 20.0977C105.418 19.8633 105.867 19.5898 106.297 19.2773C106.727 18.9648 107.059 18.6133 107.293 18.2227C107.527 17.793 107.84 17.4219 108.23 17.1094C108.855 16.6406 109.539 16.25 110.281 15.9375C111.023 15.5859 111.727 15.1367 112.391 14.5898C113.055 14.043 113.777 13.5547 114.559 13.125C115.379 12.6953 116.141 12.3047 116.844 11.9531C117.078 11.8359 117.312 11.8359 117.547 11.9531C117.781 12.0313 118.035 12.168 118.309 12.3633ZM145.906 17.6367C144.852 18.1445 143.797 18.3984 142.742 18.3984C141.688 18.3984 140.516 18.3594 139.227 18.2812C138.875 18.2812 138.484 18.3008 138.055 18.3398C137.664 18.3789 137.293 18.418 136.941 18.457C135.105 18.6523 133.562 19.3555 132.312 20.5664C131.062 21.7383 130.145 23.2227 129.559 25.0195C129.363 25.6836 129.207 26.2891 129.09 26.8359C128.973 27.3828 129.227 27.6953 129.852 27.7734C130.242 27.8516 130.633 27.8516 131.023 27.7734C131.414 27.6953 131.805 27.5977 132.195 27.4805C132.625 27.3242 133.035 27.1875 133.426 27.0703C133.816 26.9531 134.207 26.8945 134.598 26.8945C134.754 26.8945 134.891 26.9336 135.008 27.0117C135.164 27.0898 135.32 27.1289 135.477 27.1289C136.141 27.207 136.844 27.168 137.586 27.0117C138.328 26.8164 139.012 26.7969 139.637 26.9531C139.754 26.9922 139.852 27.0703 139.93 27.1875C140.047 27.2656 140.203 27.3438 140.398 27.4219C140.906 27.6172 141.512 27.7539 142.215 27.832C142.918 27.8711 143.484 27.9883 143.914 28.1836C144.109 28.2617 144.305 28.418 144.5 28.6523C144.695 28.8477 144.793 28.9844 144.793 29.0625C144.793 29.4922 144.539 29.7656 144.031 29.8828C143.523 30 143.094 30.0781 142.742 30.1172C142.43 30.1562 142.117 30.1562 141.805 30.1172C141.492 30.0781 141.18 30.0977 140.867 30.1758C140.32 30.2539 139.793 30.3711 139.285 30.5273C138.777 30.6445 138.23 30.8008 137.645 30.9961C136.98 31.2305 136.355 31.5234 135.77 31.875C135.184 32.1875 134.539 32.3828 133.836 32.4609C133.328 32.5391 132.84 32.5391 132.371 32.4609C131.902 32.3828 131.395 32.3828 130.848 32.4609C130.652 32.5 130.457 32.5586 130.262 32.6367C130.105 32.7148 129.93 32.7734 129.734 32.8125C129.383 32.8906 129.109 32.9492 128.914 32.9883C128.758 32.9883 128.621 33.0273 128.504 33.1055C128.426 33.1836 128.328 33.3008 128.211 33.457C128.133 33.6133 127.996 33.8477 127.801 34.1602C127.488 34.8633 127.293 35.625 127.215 36.4453C127.137 37.2266 127.059 38.0664 126.98 38.9648C127.41 39.3945 127.82 39.7461 128.211 40.0195C128.602 40.2539 129.207 40.3711 130.027 40.3711C130.457 40.3711 130.789 40.332 131.023 40.2539C131.297 40.1367 131.648 40.0586 132.078 40.0195C132.508 40.0195 132.938 40.0586 133.367 40.1367C133.797 40.1758 134.285 40.1758 134.832 40.1367C135.965 40.0586 136.922 39.9219 137.703 39.7266C138.484 39.4922 139.441 39.4141 140.574 39.4922C140.809 39.4922 141.219 39.5117 141.805 39.5508C142.43 39.5898 143.055 39.6484 143.68 39.7266C144.305 39.7656 144.852 39.8438 145.32 39.9609C145.828 40.0781 146.082 40.2344 146.082 40.4297C146.082 40.6641 145.926 40.918 145.613 41.1914C145.34 41.4258 145.008 41.6602 144.617 41.8945C144.266 42.0898 143.895 42.2656 143.504 42.4219C143.152 42.5391 142.918 42.6172 142.801 42.6562C142.137 42.8516 141.492 42.9102 140.867 42.832C140.242 42.7148 139.559 42.6953 138.816 42.7734C138.27 42.8516 137.781 42.9688 137.352 43.125C136.922 43.2812 136.492 43.457 136.062 43.6523C135.633 43.8086 135.184 43.9844 134.715 44.1797C134.285 44.3359 133.777 44.4336 133.191 44.4727C132.41 44.5508 131.746 44.6484 131.199 44.7656C130.652 44.8438 130.008 44.9609 129.266 45.1172C128.953 45.1953 128.66 45.2734 128.387 45.3516C128.113 45.4688 127.82 45.5664 127.508 45.6445C126.375 45.8789 125.145 45.918 123.816 45.7617C122.527 45.6445 121.121 45.6641 119.598 45.8203C118.621 45.9375 117.742 46.0742 116.961 46.2305C116.219 46.4258 115.457 46.4844 114.676 46.4062C114.402 46.3672 114.148 46.3281 113.914 46.2891C113.641 46.2891 113.406 46.1914 113.211 45.9961C113.289 45.6836 113.465 45.4102 113.738 45.1758C114.012 44.9414 114.285 44.7266 114.559 44.5312C114.832 44.2969 115.086 44.0625 115.32 43.8281C115.594 43.5547 115.848 43.3008 116.082 43.0664C116.316 42.7539 116.512 42.3828 116.668 41.9531C116.824 41.4844 116.961 41.0156 117.078 40.5469C117.234 40.0781 117.391 39.6484 117.547 39.2578C117.742 38.8281 117.977 38.457 118.25 38.1445C117.938 37.4414 117.938 36.6406 118.25 35.7422C118.602 34.8438 118.914 33.9062 119.188 32.9297C119.266 32.6953 119.305 32.4609 119.305 32.2266C119.305 31.9922 119.344 31.7773 119.422 31.582C119.5 31.1914 119.676 30.8594 119.949 30.5859C120.223 30.2734 120.398 29.9609 120.477 29.6484C120.516 29.4531 120.516 29.2578 120.477 29.0625C120.477 28.8672 120.496 28.6719 120.535 28.4766C120.613 27.8906 120.75 27.3438 120.945 26.8359C121.18 26.2891 121.336 25.8008 121.414 25.3711C121.492 25.0586 121.492 24.7461 121.414 24.4336C121.375 24.082 121.375 23.75 121.414 23.4375C121.492 22.6562 121.648 21.9141 121.883 21.2109C122.156 20.5078 122.312 19.8828 122.352 19.3359C122.391 18.9062 122.332 18.4375 122.176 17.9297C122.02 17.4219 121.863 17.0312 121.707 16.7578C121.59 16.5625 121.414 16.3672 121.18 16.1719C120.945 15.9375 120.711 15.7227 120.477 15.5273C120.242 15.332 120.027 15.1562 119.832 15C119.676 14.8047 119.598 14.6289 119.598 14.4727C119.637 14.043 119.812 13.8281 120.125 13.8281C120.438 13.7891 120.73 13.6523 121.004 13.418C122.41 13.457 123.738 13.6133 124.988 13.8867C126.277 14.1602 127.605 14.3359 128.973 14.4141C129.48 14.4922 130.008 14.4922 130.555 14.4141C131.102 14.2969 131.629 14.2187 132.137 14.1797C132.957 14.1406 133.875 14.2578 134.891 14.5312C135.945 14.8047 136.98 14.9023 137.996 14.8242C139.363 14.7461 140.652 14.707 141.863 14.707C143.074 14.707 144.344 14.668 145.672 14.5898C145.906 14.7852 146.258 14.8828 146.727 14.8828C147.195 14.8438 147.664 14.8047 148.133 14.7656C148.641 14.6875 149.09 14.668 149.48 14.707C149.91 14.7461 150.203 14.9219 150.359 15.2344C150.594 15.7812 150.555 16.25 150.242 16.6406C149.93 17.0312 149.5 17.2852 148.953 17.4023C148.797 17.4023 148.582 17.4219 148.309 17.4609C148.035 17.5 147.742 17.5391 147.43 17.5781C147.117 17.6172 146.805 17.6367 146.492 17.6367C146.219 17.6367 146.023 17.6367 145.906 17.6367ZM182.293 14.4727C182.215 14.8633 182.078 15.1953 181.883 15.4688C181.727 15.7422 181.551 16.0352 181.355 16.3477C180.652 16.5039 179.988 16.8164 179.363 17.2852C178.777 17.7148 178.094 17.9688 177.312 18.0469C177.156 18.0469 177 18.0273 176.844 17.9883C176.727 17.9102 176.59 17.8711 176.434 17.8711C175.965 17.832 175.438 17.8516 174.852 17.9297C174.305 18.0078 173.758 18.0859 173.211 18.1641C172.469 18.2422 171.844 18.418 171.336 18.6914C170.828 18.9648 170.242 19.1797 169.578 19.3359C168.055 19.7266 166.688 20.293 165.477 21.0352C164.305 21.7383 163.387 22.7148 162.723 23.9648C162.41 24.5508 162.078 25.2344 161.727 26.0156C161.414 26.7578 160.945 27.3633 160.32 27.832C160.516 28.2617 160.574 28.6523 160.496 29.0039C160.457 29.3555 160.359 29.6875 160.203 30C160.086 30.2734 159.93 30.5664 159.734 30.8789C159.578 31.1523 159.461 31.4258 159.383 31.6992C159.305 31.8555 159.266 32.0312 159.266 32.2266C159.305 32.4219 159.305 32.6172 159.266 32.8125C159.07 34.0625 159.148 35.2344 159.5 36.3281C159.852 37.3828 160.516 38.125 161.492 38.5547C162.117 38.8672 162.723 39.043 163.309 39.082C163.895 39.1211 164.617 39.1016 165.477 39.0234C166.375 38.9453 167.352 38.8867 168.406 38.8477C169.461 38.8086 170.281 38.5742 170.867 38.1445C171.18 37.9102 171.414 37.5977 171.57 37.207C171.727 36.8164 171.961 36.4258 172.273 36.0352C172.586 35.6055 172.84 35.0977 173.035 34.5117C173.23 33.8867 173.309 33.3203 173.27 32.8125C173.23 32.5391 173.035 32.2656 172.684 31.9922C172.371 31.7188 172.098 31.543 171.863 31.4648C171.59 31.3477 171.297 31.2891 170.984 31.2891C170.711 31.25 170.438 31.2109 170.164 31.1719C169.93 31.0938 169.715 30.9961 169.52 30.8789C169.363 30.7617 169.285 30.5469 169.285 30.2344C169.285 29.8438 169.539 29.5703 170.047 29.4141C170.594 29.2188 171.238 29.1016 171.98 29.0625C172.723 28.9844 173.484 28.9453 174.266 28.9453C175.086 28.9453 175.73 28.9062 176.199 28.8281C176.785 28.7109 177.391 28.457 178.016 28.0664C178.68 27.6758 179.344 27.5 180.008 27.5391C180.398 27.5391 180.691 27.5586 180.887 27.5977C181.082 27.6367 181.238 27.6953 181.355 27.7734C181.473 27.8516 181.57 27.9688 181.648 28.125C181.766 28.2422 181.883 28.3984 182 28.5938C182.234 29.4531 182.273 30.2344 182.117 30.9375C181.961 31.6016 181.727 32.2656 181.414 32.9297C181.297 33.2812 181.219 33.6523 181.18 34.043C181.18 34.3945 181.141 34.7266 181.062 35.0391C180.984 35.3516 180.809 35.6836 180.535 36.0352C180.301 36.3867 180.066 36.7773 179.832 37.207C179.637 37.6367 179.461 38.0859 179.305 38.5547C179.188 39.0234 179.031 39.4727 178.836 39.9023C178.758 40.0195 178.66 40.1367 178.543 40.2539C178.465 40.332 178.387 40.4492 178.309 40.6055C178.113 41.0352 177.996 41.4648 177.957 41.8945C177.918 42.2852 177.82 42.6367 177.664 42.9492C177.43 43.6914 177.059 44.3359 176.551 44.8828C176.082 45.4297 175.672 45.9766 175.32 46.5234C175.047 46.6016 174.793 46.6406 174.559 46.6406C174.324 46.6797 174.109 46.7188 173.914 46.7578C173.719 46.8359 173.602 46.7773 173.562 46.582C173.562 46.3867 173.484 46.25 173.328 46.1719C172.898 46.4844 172.41 46.8164 171.863 47.168C171.355 47.5195 170.77 47.5781 170.105 47.3438C170.027 46.9141 170.047 46.5234 170.164 46.1719C170.281 45.8594 170.418 45.5469 170.574 45.2344C170.77 44.9609 170.965 44.6875 171.16 44.4141C171.355 44.1406 171.492 43.8281 171.57 43.4766C171.023 43.5547 170.496 43.7891 169.988 44.1797C169.48 44.5703 168.934 44.8633 168.348 45.0586C168.152 45.1367 167.918 45.1367 167.645 45.0586C167.41 45.0195 167.156 45.0391 166.883 45.1172C165.906 45.2734 164.832 45.5078 163.66 45.8203C162.488 46.1328 161.434 46.1914 160.496 45.9961C160.262 45.957 160.066 45.8594 159.91 45.7031C159.793 45.5859 159.637 45.4688 159.441 45.3516C159.012 45.1172 158.523 44.9609 157.977 44.8828C157.43 44.8047 156.941 44.6875 156.512 44.5312C155.77 44.2969 155.164 43.9258 154.695 43.418C154.227 42.8711 153.777 42.4023 153.348 42.0117C153.309 41.6992 153.191 41.4258 152.996 41.1914C152.801 40.918 152.566 40.6836 152.293 40.4883C152.059 40.2539 151.824 40.0391 151.59 39.8438C151.355 39.6094 151.18 39.3555 151.062 39.082C150.945 38.7695 150.867 38.418 150.828 38.0273C150.828 37.6367 150.77 37.2461 150.652 36.8555C150.496 36.2305 150.32 35.6836 150.125 35.2148C149.969 34.707 149.832 34.2188 149.715 33.75C149.637 33.2422 149.598 32.7148 149.598 32.168C149.598 31.6211 149.695 30.9961 149.891 30.293C150.125 29.6289 150.398 28.9258 150.711 28.1836C151.023 27.4414 151.316 26.7578 151.59 26.1328C152.059 25.1562 152.645 24.1406 153.348 23.0859C153.777 22.4609 154.188 21.9336 154.578 21.5039C154.969 21.0352 155.379 20.5664 155.809 20.0977C156.512 19.2773 157.43 18.5156 158.562 17.8125C159.734 17.0703 160.867 16.4258 161.961 15.8789C162.898 15.4492 163.953 15.0195 165.125 14.5898C166.336 14.1602 167.605 13.9063 168.934 13.8281C170.105 13.7109 171.258 13.7695 172.391 14.0039C173.523 14.2383 174.656 14.3945 175.789 14.4727C176.453 14.5117 177.176 14.5508 177.957 14.5898C178.738 14.5898 179.461 14.5117 180.125 14.3555C180.32 14.3164 180.516 14.2773 180.711 14.2383C180.906 14.1602 181.082 14.1016 181.238 14.0625C181.434 14.0234 181.609 14.043 181.766 14.1211C181.961 14.1602 182.137 14.2773 182.293 14.4727ZM196.941 14.7656C196.98 14.9609 196.98 15.3516 196.941 15.9375C196.941 16.4844 196.922 17.1094 196.883 17.8125C196.844 18.4766 196.824 19.1406 196.824 19.8047C196.863 20.4688 196.961 20.9766 197.117 21.3281C197.195 21.5234 197.312 21.6797 197.469 21.7969C197.625 21.9141 197.742 22.0508 197.82 22.207C198.055 22.6367 198.191 23.1055 198.23 23.6133C198.309 24.1211 198.484 24.5703 198.758 24.9609C198.68 25.1953 198.562 25.3711 198.406 25.4883C198.25 25.6055 198.133 25.7617 198.055 25.957C198.367 26.3086 198.602 26.6992 198.758 27.1289C198.914 27.5586 198.895 28.1641 198.699 28.9453C199.051 29.0234 199.285 29.1797 199.402 29.4141C199.559 29.6484 199.656 29.9219 199.695 30.2344C199.773 30.5469 199.832 30.8594 199.871 31.1719C199.91 31.4453 200.027 31.6797 200.223 31.875C200.496 31.875 200.652 31.8164 200.691 31.6992C200.73 31.582 200.848 31.5234 201.043 31.5234C201.434 31.0156 201.824 30.4297 202.215 29.7656C202.645 29.1016 203.074 28.4375 203.504 27.7734C203.973 27.0703 204.422 26.4062 204.852 25.7812C205.32 25.1562 205.789 24.6289 206.258 24.1992C206.375 24.082 206.531 23.9844 206.727 23.9062C206.922 23.7891 207.059 23.6523 207.137 23.4961C207.41 23.1055 207.586 22.5781 207.664 21.9141C207.742 21.2109 207.879 20.6445 208.074 20.2148C208.27 19.707 208.543 19.2383 208.895 18.8086C209.246 18.3789 209.578 17.9102 209.891 17.4023C210.125 16.9727 210.34 16.6016 210.535 16.2891C210.73 15.9375 210.945 15.6445 211.18 15.4102C211.453 15.1758 211.766 15 212.117 14.8828C212.469 14.7266 212.918 14.6289 213.465 14.5898C213.738 14.5898 213.992 14.6484 214.227 14.7656C214.461 14.8438 214.715 14.8828 214.988 14.8828C215.73 14.8828 216.512 14.8242 217.332 14.707C218.152 14.5508 218.973 14.3945 219.793 14.2383C220.652 14.082 221.473 14.0039 222.254 14.0039C223.074 13.9648 223.875 14.0625 224.656 14.2969C224.734 14.8438 224.539 15.2344 224.07 15.4688C223.641 15.7031 223.25 15.918 222.898 16.1133C222.469 16.3867 222 16.6992 221.492 17.0508C221.023 17.3633 220.633 17.6953 220.32 18.0469C220.125 18.2812 219.949 18.5352 219.793 18.8086C219.637 19.082 219.461 19.3359 219.266 19.5703C218.68 20.2344 218.055 20.9766 217.391 21.7969C216.766 22.5781 216.238 23.4766 215.809 24.4922C215.262 25.2734 214.617 26.0156 213.875 26.7188C213.172 27.4219 212.488 28.2227 211.824 29.1211C211.473 29.5898 211.141 30.1172 210.828 30.7031C210.555 31.25 210.242 31.7969 209.891 32.3438C209.344 33.2031 208.836 34.0234 208.367 34.8047C207.938 35.5469 207.254 36.0742 206.316 36.3867C206.277 37.0508 206.043 37.6172 205.613 38.0859C205.184 38.5547 204.832 39.0234 204.559 39.4922C203.973 40.5469 203.367 41.5625 202.742 42.5391C202.156 43.5156 201.473 44.4336 200.691 45.293C200.145 45.4883 199.676 45.7227 199.285 45.9961C198.934 46.3086 198.621 46.6211 198.348 46.9336C198.074 47.2852 197.801 47.6562 197.527 48.0469C197.293 48.4375 197 48.8477 196.648 49.2773C196.414 49.5117 196.16 49.668 195.887 49.7461C195.652 49.8633 195.398 49.9414 195.125 49.9805C194.891 50.0586 194.637 50.1367 194.363 50.2148C194.129 50.332 193.914 50.5078 193.719 50.7422C193.406 51.1719 193.094 51.6016 192.781 52.0312C192.469 52.5 192.117 52.9102 191.727 53.2617C191.297 53.6914 190.828 54.0234 190.32 54.2578C189.812 54.5312 189.402 54.9219 189.09 55.4297C188.309 55.7031 187.547 55.957 186.805 56.1914C186.062 56.4648 185.184 56.7383 184.168 57.0117C183.738 57.1289 183.328 57.207 182.938 57.2461C182.547 57.3242 182.098 57.4219 181.59 57.5391C181.043 57.6562 180.516 57.832 180.008 58.0664C179.5 58.3008 178.973 58.4375 178.426 58.4766C177.176 58.5547 175.984 58.4766 174.852 58.2422C173.68 58.0078 172.645 57.7148 171.746 57.3633C171.707 57.0508 171.59 56.8164 171.395 56.6602C171.199 56.5039 171.16 56.2109 171.277 55.7812C171.473 55.5078 171.805 55.3516 172.273 55.3125C172.703 55.3125 173.094 55.3711 173.445 55.4883C173.953 55.4102 174.363 55.3125 174.676 55.1953C174.988 55.0781 175.281 54.9414 175.555 54.7852C175.828 54.668 176.102 54.5508 176.375 54.4336C176.648 54.3164 177 54.2188 177.43 54.1406C178.172 53.9844 178.875 53.7891 179.539 53.5547C180.164 53.3203 180.906 53.2617 181.766 53.3789C181.883 53.3008 181.98 53.125 182.059 52.8516C182.098 52.5781 182.176 52.4023 182.293 52.3242C182.84 51.6602 183.465 51.1523 184.168 50.8008C184.441 50.332 184.754 50 185.105 49.8047C185.457 49.6484 185.809 49.5117 186.16 49.3945C186.551 49.3164 186.941 49.2188 187.332 49.1016C187.762 48.9844 188.172 48.75 188.562 48.3984C189.305 47.7344 190.008 47.1289 190.672 46.582C191.336 46.0742 191.941 45.3711 192.488 44.4727C192.723 44.1602 192.938 43.8086 193.133 43.418C193.367 43.0273 193.621 42.6172 193.895 42.1875C194.051 41.9531 194.207 41.7578 194.363 41.6016C194.559 41.4453 194.754 41.2109 194.949 40.8984C195.027 40.7812 195.008 40.6641 194.891 40.5469C194.812 40.3906 194.715 40.2539 194.598 40.1367C194.48 40.0195 194.363 39.9023 194.246 39.7852C194.168 39.6289 194.148 39.4727 194.188 39.3164C194.266 39.1211 194.266 38.8281 194.188 38.4375C194.109 38.0078 194.031 37.6562 193.953 37.3828C193.875 36.7969 193.738 36.1328 193.543 35.3906C193.387 34.6484 193.23 34.0625 193.074 33.6328C192.879 33.3203 192.703 33.0664 192.547 32.8711C192.43 32.6367 192.352 32.3242 192.312 31.9336C192.273 31.3867 192.273 30.8984 192.312 30.4688C192.391 30.0391 192.391 29.6094 192.312 29.1797C192.117 28.2422 191.922 27.4414 191.727 26.7773C191.609 26.3477 191.434 25.9961 191.199 25.7227C191.004 25.4102 190.828 25.0391 190.672 24.6094C190.672 24.1406 190.555 23.6328 190.32 23.0859C190.125 22.5 189.891 21.9141 189.617 21.3281C189.383 20.7422 189.148 20.1758 188.914 19.6289C188.719 19.043 188.602 18.5156 188.562 18.0469C188.328 17.6953 188.016 17.3828 187.625 17.1094C187.234 16.8359 186.863 16.6016 186.512 16.4062C186.16 16.1719 185.848 15.9766 185.574 15.8203C185.34 15.625 185.223 15.4297 185.223 15.2344C185.223 15 185.262 14.8438 185.34 14.7656C185.457 14.6484 185.574 14.5703 185.691 14.5312C185.809 14.4531 185.926 14.375 186.043 14.2969C186.199 14.2187 186.336 14.0625 186.453 13.8281C186.727 13.7109 187.039 13.6523 187.391 13.6523C187.742 13.6523 188.113 13.6914 188.504 13.7695C188.895 13.8086 189.266 13.8672 189.617 13.9453C190.008 13.9844 190.379 13.9844 190.73 13.9453C191.395 13.8672 192.059 13.8672 192.723 13.9453C193.426 14.0234 194.109 14.082 194.773 14.1211C194.812 14.3164 194.949 14.4336 195.184 14.4727C195.418 14.4727 195.652 14.4727 195.887 14.4727C196.121 14.4336 196.336 14.4336 196.531 14.4727C196.766 14.5117 196.902 14.6094 196.941 14.7656ZM253.719 46.4062C253.523 46.3672 253.426 46.2305 253.426 45.9961C253.426 45.7617 253.348 45.6055 253.191 45.5273C252.684 45.5273 252.273 45.5273 251.961 45.5273C251.688 45.5664 251.277 45.4883 250.73 45.293C250.496 44.7461 250.379 44.1797 250.379 43.5938C250.379 43.0078 250.477 42.4414 250.672 41.8945C250.75 41.6602 250.867 41.4648 251.023 41.3086C251.219 41.1133 251.355 40.918 251.434 40.7227C251.473 40.5273 251.453 40.3125 251.375 40.0781C251.336 39.8438 251.316 39.6289 251.316 39.4336C251.355 38.2617 251.609 37.1094 252.078 35.9766C252.547 34.8047 252.879 33.6523 253.074 32.5195C253.113 32.207 253.094 31.8359 253.016 31.4062C252.938 30.9375 252.938 30.5469 253.016 30.2344C253.094 29.8828 253.23 29.5508 253.426 29.2383C253.66 28.9258 253.816 28.5742 253.895 28.1836C254.051 27.4023 254.129 26.6406 254.129 25.8984C254.168 25.1172 254.344 24.3555 254.656 23.6133C253.328 24.9805 252.117 26.3867 251.023 27.832C249.93 29.2383 248.895 30.8789 247.918 32.7539C247.488 33.6523 246.961 34.4727 246.336 35.2148C245.711 35.918 245.184 36.7578 244.754 37.7344C244.676 37.9297 244.637 38.125 244.637 38.3203C244.637 38.4766 244.598 38.6523 244.52 38.8477C244.324 39.2773 244.051 39.7266 243.699 40.1953C243.387 40.6641 243.133 41.1914 242.938 41.7773C242.82 42.207 242.684 42.6758 242.527 43.1836C242.41 43.6914 242.234 44.1797 242 44.6484C241.805 45.0781 241.551 45.4492 241.238 45.7617C240.926 46.0742 240.516 46.25 240.008 46.2891C239.539 46.2891 239.148 46.1914 238.836 45.9961C238.562 45.8398 238.23 45.8203 237.84 45.9375C237.254 45.5078 236.648 45.1172 236.023 44.7656C235.438 44.375 234.969 43.8086 234.617 43.0664C234.227 42.3242 233.934 41.3867 233.738 40.2539C233.582 39.082 233.387 38.0273 233.152 37.0898C233.074 36.7773 232.957 36.4844 232.801 36.2109C232.684 35.8984 232.605 35.625 232.566 35.3906C232.527 34.9219 232.527 34.4727 232.566 34.043C232.605 33.5742 232.586 33.125 232.508 32.6953C232.391 32.2266 232.137 31.8164 231.746 31.4648C231.395 31.1133 231.121 30.7812 230.926 30.4688C230.809 29.8828 230.73 29.2578 230.691 28.5938C230.652 27.8906 230.613 27.207 230.574 26.543C230.184 26.6992 229.949 27.0117 229.871 27.4805C229.793 27.9492 229.656 28.457 229.461 29.0039C229.344 29.2773 229.207 29.5312 229.051 29.7656C228.934 30 228.855 30.2148 228.816 30.4102C228.777 30.6445 228.797 30.8789 228.875 31.1133C228.953 31.3477 228.973 31.6211 228.934 31.9336C228.895 32.168 228.816 32.4609 228.699 32.8125C228.621 33.1641 228.543 33.4961 228.465 33.8086C228.27 34.3555 228.035 34.9023 227.762 35.4492C227.488 35.9961 227.273 36.6016 227.117 37.2656C226.883 37.9297 226.727 38.6523 226.648 39.4336C226.609 40.1758 226.492 40.8203 226.297 41.3672C226.219 41.6016 226.062 41.8164 225.828 42.0117C225.594 42.207 225.359 42.4414 225.125 42.7148C224.891 42.9492 224.676 43.2227 224.48 43.5352C224.324 43.8477 224.246 44.1992 224.246 44.5898C223.816 44.9023 223.348 45.1562 222.84 45.3516C222.371 45.5859 221.805 45.8203 221.141 46.0547C220.789 46.1719 220.418 46.25 220.027 46.2891C219.676 46.3281 219.344 46.2695 219.031 46.1133C218.719 45.9961 218.484 45.7617 218.328 45.4102C218.172 45.0977 218.133 44.6484 218.211 44.0625C218.289 43.5156 218.465 42.9297 218.738 42.3047C219.051 41.6406 219.305 40.918 219.5 40.1367C219.773 39.1211 220.008 38.2031 220.203 37.3828C220.438 36.5625 220.789 35.8594 221.258 35.2734V34.1602C221.414 33.8867 221.551 33.6328 221.668 33.3984C221.785 33.125 221.961 32.8906 222.195 32.6953C222.078 32.1484 222.039 31.6211 222.078 31.1133C222.156 30.6055 222.273 30.1172 222.43 29.6484C222.625 29.1406 222.82 28.6719 223.016 28.2422C223.211 27.7734 223.387 27.3242 223.543 26.8945C223.699 26.4258 223.797 26.0156 223.836 25.6641C223.875 25.2734 223.992 24.9219 224.188 24.6094C224.266 24.4531 224.402 24.3359 224.598 24.2578C224.793 24.1406 224.949 23.9844 225.066 23.7891C225.262 23.4375 225.477 22.9492 225.711 22.3242C225.984 21.6602 226.16 21.1328 226.238 20.7422C226.355 20.3906 226.395 20.0391 226.355 19.6875C226.355 19.2969 226.336 18.9258 226.297 18.5742C226.258 18.1836 226.238 17.8125 226.238 17.4609C226.277 17.1094 226.395 16.7969 226.59 16.5234C226.707 16.3281 226.902 16.1523 227.176 15.9961C227.488 15.8398 227.742 15.7031 227.938 15.5859C228.367 15.3125 228.777 15.0977 229.168 14.9414C229.559 14.7461 230.027 14.5508 230.574 14.3555C230.77 14.2773 230.984 14.1992 231.219 14.1211C231.453 14.043 231.648 14.0039 231.805 14.0039C232.234 14.0039 232.625 14.1406 232.977 14.4141C233.328 14.6875 233.738 14.9219 234.207 15.1172C234.402 15.1953 234.598 15.2344 234.793 15.2344C234.988 15.2344 235.145 15.2539 235.262 15.293C235.965 15.6055 236.59 15.9961 237.137 16.4648C237.684 16.8945 238.152 17.3047 238.543 17.6953C238.973 19.1797 239.168 20.7227 239.129 22.3242C239.129 23.9258 239.207 25.4688 239.363 26.9531C239.441 27.1875 239.52 27.4219 239.598 27.6562C239.676 27.8906 239.734 28.125 239.773 28.3594C239.812 28.7891 239.793 29.1992 239.715 29.5898C239.676 29.9805 239.695 30.3711 239.773 30.7617C239.891 31.543 240.086 32.2461 240.359 32.8711C240.672 33.4961 240.906 34.1797 241.062 34.9219C241.453 34.7266 241.766 34.4336 242 34.043C242.234 33.6133 242.449 33.2031 242.645 32.8125C243.035 31.9922 243.426 31.2305 243.816 30.5273C244.207 29.7852 244.676 29.082 245.223 28.418C245.652 27.832 245.984 27.1875 246.219 26.4844C246.453 25.7812 246.883 25.2344 247.508 24.8438C247.742 24.6484 247.996 24.5312 248.27 24.4922C248.543 24.4531 248.777 24.2969 248.973 24.0234C249.168 22.5391 249.539 21.2695 250.086 20.2148C250.672 19.1602 251.336 18.125 252.078 17.1094C252.391 16.7188 252.742 16.2109 253.133 15.5859C253.562 14.9219 253.973 14.5117 254.363 14.3555C254.715 14.1992 255.145 14.1797 255.652 14.2969C256.199 14.375 256.688 14.4141 257.117 14.4141C257.703 14.4141 258.191 14.3359 258.582 14.1797C259.012 14.0234 259.402 13.8672 259.754 13.7109C260.145 13.5547 260.535 13.418 260.926 13.3008C261.355 13.1836 261.863 13.1641 262.449 13.2422C262.527 13.1641 262.625 13.125 262.742 13.125C262.859 13.0859 262.977 13.0273 263.094 12.9492C263.445 13.1055 263.797 13.3008 264.148 13.5352C264.5 13.7305 264.812 13.9844 265.086 14.2969C265.398 14.5703 265.633 14.9023 265.789 15.293C265.984 15.6445 266.062 16.0352 266.023 16.4648C266.023 16.6602 265.945 16.875 265.789 17.1094C265.633 17.3438 265.496 17.6172 265.379 17.9297C265.301 18.1641 265.203 18.418 265.086 18.6914C264.969 18.9648 264.871 19.2188 264.793 19.4531C264.676 19.8828 264.695 20.332 264.852 20.8008C265.008 21.2305 264.988 21.582 264.793 21.8555C264.637 22.0508 264.422 22.207 264.148 22.3242C263.914 22.4414 263.738 22.6172 263.621 22.8516C263.426 23.125 263.289 23.4766 263.211 23.9062C263.172 24.3359 263.094 24.7266 262.977 25.0781C262.742 25.8594 262.508 26.6211 262.273 27.3633C262.078 28.1055 261.902 28.8867 261.746 29.707C261.629 30.3711 261.512 31.0156 261.395 31.6406C261.316 32.2656 261.062 32.7344 260.633 33.0469C260.516 33.6719 260.457 34.2969 260.457 34.9219C260.496 35.5078 260.477 36.0938 260.398 36.6797C260.242 37.8125 259.93 38.9062 259.461 39.9609C258.992 41.0156 258.621 42.0508 258.348 43.0664C258.191 43.6523 258.055 44.1797 257.938 44.6484C257.859 45.0781 257.625 45.4688 257.234 45.8203C256.609 45.8984 256.004 46.0156 255.418 46.1719C254.832 46.3281 254.266 46.4062 253.719 46.4062Z" fill="#800080"/>
</svg>
